<svg width="18" height="20" viewBox="0 0 18 20" fill="none" xmlns="http://www.w3.org/2000/svg">
<path d="M8.10149 14.8083C8.17072 14.8084 8.23927 14.8237 8.3032 14.8532C8.36713 14.8828 8.4252 14.926 8.47409 14.9805C8.52298 15.035 8.56173 15.0996 8.58814 15.1707C8.61454 15.2419 8.62808 15.3181 8.62798 15.395C8.62789 15.4719 8.61415 15.5481 8.58756 15.6191C8.56098 15.6902 8.52206 15.7547 8.47303 15.809C8.424 15.8633 8.36582 15.9064 8.30181 15.9357C8.23781 15.9651 8.16922 15.9801 8.09999 15.98C7.96015 15.9798 7.82612 15.9178 7.72738 15.8078C7.62864 15.6978 7.57329 15.5487 7.57348 15.3933C7.57368 15.238 7.62942 15.089 7.72844 14.9793C7.82746 14.8696 7.96165 14.8081 8.10149 14.8083ZM16.3695 11.1858C16.3002 11.1858 16.2317 11.1706 16.1677 11.1411C16.1038 11.1116 16.0457 11.0684 15.9968 11.0139C15.9478 10.9595 15.9091 10.8949 15.8826 10.8238C15.8561 10.7527 15.8426 10.6765 15.8426 10.5996C15.8427 10.5226 15.8563 10.4465 15.8829 10.3754C15.9094 10.3044 15.9483 10.2398 15.9973 10.1855C16.0463 10.1311 16.1044 10.088 16.1684 10.0586C16.2324 10.0292 16.301 10.0141 16.3702 10.0142C16.5101 10.0143 16.6441 10.0761 16.7429 10.186C16.8418 10.296 16.8972 10.445 16.8971 10.6004C16.897 10.7558 16.8414 10.9048 16.7424 11.0145C16.6435 11.1243 16.5093 11.1859 16.3695 11.1858ZM16.3695 8.78916C15.9372 8.78961 15.5227 8.98062 15.217 9.32028C14.9113 9.65993 14.7394 10.1205 14.739 10.6008C14.739 10.795 14.7682 10.9883 14.8252 11.1767L9.43949 14.3625C9.29015 14.1216 9.09032 13.9246 8.85723 13.7886C8.62414 13.6525 8.36477 13.5815 8.10149 13.5817C7.47974 13.5817 6.91349 13.9775 6.63899 14.595L1.80074 11.76C1.28924 11.4617 0.906736 10.5267 0.947236 9.675C0.968236 9.23083 1.10624 8.88583 1.31699 8.7525C1.45049 8.66916 1.61099 8.67583 1.78199 8.775L1.81349 8.79416C3.09599 9.54416 7.29149 12 7.46849 12.0908C7.74074 12.2317 7.89223 12.2883 8.35723 12.0433L17.0302 7.03166C17.1577 6.97833 17.3062 6.8425 17.3062 6.63666C17.3062 6.35166 17.0407 6.23916 17.04 6.23916C16.5465 5.97666 15.7882 5.5825 15.0487 5.1975C13.4677 4.375 11.676 3.44333 10.8892 2.985C10.2097 2.59 9.66298 2.92333 9.56548 2.99L9.37648 3.09416C5.83499 5.04 1.09499 7.64833 0.824986 7.83083C0.342736 8.1575 0.0434862 8.80833 0.00448621 9.61583C-0.0555138 10.8967 0.531736 12.2325 1.37249 12.7217L6.48899 15.6533C6.54535 16.084 6.73928 16.4777 7.03534 16.7626C7.3314 17.0475 7.70983 17.2045 8.10149 17.205C8.52923 17.2042 8.93961 17.0169 9.24438 16.6834C9.54915 16.3499 9.72397 15.8969 9.73124 15.4217L15.3667 12.0275C15.6517 12.2758 16.0065 12.4117 16.3695 12.4117C16.8018 12.4112 17.2163 12.2202 17.522 11.8806C17.8277 11.5409 17.9996 11.0803 18 10.6C17.9996 10.1196 17.8277 9.6591 17.522 9.31944C17.2163 8.97978 16.8018 8.78877 16.3695 8.78833" fill="white"/>
</svg>
